<svg width="190" height="52" viewBox="0 0 529 152" fill="none" xmlns="http://www.w3.org/2000/svg">
<path d="M45.0684 109.4C63.8997 109.4 73.3154 98.3132 73.3154 76.1387C73.3154 57.265 63.8997 47.8281 45.0684 47.8281H26.3428V109.4H45.0684ZM9.52148 124V33.2285H45.0684C75.1139 33.2285 90.1367 47.5319 90.1367 76.1387C90.1367 108.046 75.1139 124 45.0684 124H9.52148ZM162.881 57.3496V124H149.741L147.71 115.494C140.05 121.165 131.925 124 123.335 124C109.709 124 102.896 115.938 102.896 99.8154V57.3496H119.717V99.3711C119.717 106.734 122.933 110.416 129.365 110.416C134.824 110.416 140.389 108.237 146.06 103.878V57.3496H162.881ZM178.813 124V57.3496H191.826L193.794 66.998C199.761 60.5658 206.934 57.3496 215.312 57.3496C223.691 57.3496 229.425 60.3965 232.515 66.4902C239.328 60.3965 246.458 57.3496 253.906 57.3496C269.225 57.3496 276.885 65.792 276.885 82.6768V124H260.063V82.042C260.063 74.6364 256.72 70.9336 250.034 70.9336C245.041 70.9336 240.238 73.1764 235.625 77.6621V124H218.804V82.2324C218.804 74.6999 215.715 70.9336 209.536 70.9336C204.627 70.9336 199.993 73.1764 195.635 77.6621V124H178.813ZM306.465 90.4209C306.465 104.343 311.86 111.305 322.651 111.305C333.442 111.305 338.838 104.343 338.838 90.4209C338.838 76.8369 333.442 70.0449 322.651 70.0449C311.86 70.0449 306.465 76.8369 306.465 90.4209ZM289.644 90.6748C289.644 68.3311 300.646 57.1592 322.651 57.1592C344.657 57.1592 355.659 68.3311 355.659 90.6748C355.659 112.976 344.657 124.127 322.651 124.127C300.731 124.127 289.728 112.976 289.644 90.6748ZM368.354 124V57.3496H381.367L383.462 67.125C389.852 60.6081 397.131 57.3496 405.298 57.3496C421.082 57.3496 428.975 65.5592 428.975 81.9785V124H412.153V81.9785C412.153 74.6152 408.493 70.9336 401.172 70.9336C395.713 70.9336 390.381 73.113 385.176 77.4717V124H368.354ZM443.955 46.5586H456.396L458.936 57.3496H475.693V70.6797H460.776V101.339C460.776 107.56 463.464 110.67 468.838 110.67H475.693V124H460.713C449.541 124 443.955 118.012 443.955 106.036V46.5586Z" fill="#fff"/>
<path d="M476.296 12.5022L485.786 16.5298L497.543 9.98665L481.978 8.55621C481.825 8.54615 481.672 8.57546 481.534 8.64134L476.285 10.8698C476.122 10.9359 475.983 11.0494 475.885 11.1956C475.787 11.3418 475.736 11.5139 475.737 11.6897C475.738 11.8655 475.792 12.0369 475.891 12.1818C475.991 12.3266 476.132 12.4382 476.296 12.5022V12.5022Z" fill="#fff"/>
<path d="M525.705 9.55624L515.212 5.92798C514.33 5.62173 513.392 5.50887 512.462 5.59707C511.532 5.68526 510.632 5.97244 509.823 6.43912L474.419 26.1566L466.645 24.8698C466.199 24.8005 465.743 24.873 465.341 25.077C464.938 25.281 464.61 25.6063 464.402 26.0069C464.195 26.4074 464.118 26.8631 464.184 27.3095C464.249 27.756 464.453 28.1706 464.767 28.4948L471.647 35.4517C471.76 35.5679 471.901 35.6532 472.057 35.6993C472.212 35.7454 472.377 35.7509 472.535 35.7152C474.808 35.1398 483.416 31.8251 493.611 27.7305L493.147 47.6461C493.142 47.8186 493.185 47.9889 493.271 48.1388C493.356 48.2887 493.481 48.4125 493.631 48.4968C493.782 48.581 493.952 48.6226 494.125 48.617C494.297 48.6114 494.465 48.5588 494.609 48.465L499.315 45.4246C499.573 45.2566 499.763 45.0032 499.853 44.7088L506.653 22.4706C513.953 19.5009 520.93 16.6138 525.845 14.5704C526.354 14.3684 526.788 14.0148 527.089 13.5576C527.39 13.1004 527.544 12.5616 527.528 12.0144C527.513 11.4671 527.33 10.9378 527.004 10.4981C526.678 10.0584 526.224 9.72961 525.705 9.55624V9.55624Z" fill="#fff"/>
<g filter="url(#filter0_d)">
<path d="M508.5 13.5L507 11.5H506.5L484.5 25L508.5 13.5Z" fill="white"/>
</g>
<defs>
<filter id="filter0_d" x="480.5" y="11.5" width="32" height="21.5" filterUnits="userSpaceOnUse" color-interpolation-filters="sRGB">
<feFlood flood-opacity="0" result="BackgroundImageFix"/>
<feColorMatrix in="SourceAlpha" type="matrix" values="0 0 0 0 0 0 0 0 0 0 0 0 0 0 0 0 0 0 127 0"/>
<feOffset dy="4"/>
<feGaussianBlur stdDeviation="2"/>
<feColorMatrix type="matrix" values="0 0 0 0 0 0 0 0 0 0 0 0 0 0 0 0 0 0 0.25 0"/>
<feBlend mode="normal" in2="BackgroundImageFix" result="effect1_dropShadow"/>
<feBlend mode="normal" in="SourceGraphic" in2="effect1_dropShadow" result="shape"/>
</filter>
</defs>
</svg>
